<svg xmlns="http://www.w3.org/2000/svg" viewBox="0 0 1024 1024" role="img" aria-label="AI会議">
  <defs>
    <radialGradient id="bg" cx="50%" cy="68%" r="82%">
      <stop offset="0" stop-color="#3b00df"/>
      <stop offset="0.34" stop-color="#003fd0"/>
      <stop offset="0.74" stop-color="#030063"/>
      <stop offset="1" stop-color="#010035"/>
    </radialGradient>
    <filter id="cyanGlow" x="-70%" y="-70%" width="240%" height="240%">
      <feGaussianBlur stdDeviation="12" result="blur"/>
      <feColorMatrix in="blur" type="matrix" values="0 0 0 0 0.02 0 0 0 0 0.88 0 0 0 0 1 0 0 0 0.92 0"/>
      <feMerge>
        <feMergeNode/>
        <feMergeNode in="SourceGraphic"/>
      </feMerge>
    </filter>
    <filter id="whiteGlow" x="-35%" y="-35%" width="170%" height="170%">
      <feGaussianBlur stdDeviation="5" result="blur"/>
      <feColorMatrix in="blur" type="matrix" values="0 0 0 0 0.2 0 0 0 0 0.65 0 0 0 0 1 0 0 0 0.5 0"/>
      <feMerge>
        <feMergeNode/>
        <feMergeNode in="SourceGraphic"/>
      </feMerge>
    </filter>
  </defs>
  <rect width="1024" height="1024" fill="url(#bg)"/>
  <g fill="none" stroke="#2ff6ff" stroke-width="25" stroke-linejoin="round" stroke-linecap="round" filter="url(#cyanGlow)">
    <path d="M132 150h126c45 0 74 28 74 70v58c0 41-28 69-69 69h-25v46l-53-46h-53c-42 0-70-28-70-69v-58c0-42 28-70 70-70Z"/>
    <path d="M766 150h126c42 0 70 28 70 70v58c0 41-28 69-70 69h-53l-53 46v-46h-25c-41 0-69-28-69-69v-58c0-42 29-70 74-70Z"/>
  </g>
  <g fill="#2ff6ff" filter="url(#cyanGlow)">
    <circle cx="147" cy="252" r="15"/>
    <circle cx="195" cy="252" r="15"/>
    <circle cx="243" cy="252" r="15"/>
    <circle cx="781" cy="252" r="15"/>
    <circle cx="829" cy="252" r="15"/>
    <circle cx="877" cy="252" r="15"/>
  </g>
  <text x="512" y="650" text-anchor="middle" font-family="Arial Black, Impact, Arial, Helvetica, sans-serif" font-size="385" font-weight="900" letter-spacing="-22" fill="#ffffff" filter="url(#whiteGlow)">AI</text>
  <text x="512" y="850" text-anchor="middle" font-family="Hiragino Sans, Yu Gothic, Meiryo, Arial, sans-serif" font-size="150" font-weight="900" letter-spacing="6" fill="#ffffff" filter="url(#whiteGlow)">会議</text>
</svg>
