<svg xmlns="http://www.w3.org/2000/svg" viewBox="0 0 180 180" role="img" aria-label="AI会議室">
  <defs>
    <linearGradient id="bg" x1="0" y1="0" x2="1" y2="1">
      <stop offset="0" stop-color="#0d6b5f"/>
      <stop offset="1" stop-color="#123d47"/>
    </linearGradient>
  </defs>
  <rect width="180" height="180" rx="38" fill="url(#bg)"/>
  <path d="M43 38h94c12 0 21 9 21 21v48c0 12-9 21-21 21H89l-28 20c-4 3-10 0-9-5l5-15H43c-12 0-21-9-21-21V59c0-12 9-21 21-21Z" fill="#f7fbf8"/>
  <text x="90" y="96" text-anchor="middle" font-family="Arial, Helvetica, sans-serif" font-size="52" font-weight="800" fill="#123d47">AI</text>
  <rect x="48" y="132" width="84" height="12" rx="6" fill="#f2b84b"/>
  <circle cx="57" cy="121" r="10" fill="#f7fbf8"/>
  <circle cx="90" cy="121" r="10" fill="#f7fbf8"/>
  <circle cx="123" cy="121" r="10" fill="#f7fbf8"/>
  <circle cx="57" cy="121" r="4" fill="#0d6b5f"/>
  <circle cx="90" cy="121" r="4" fill="#0d6b5f"/>
  <circle cx="123" cy="121" r="4" fill="#0d6b5f"/>
</svg>
